<svg height="512pt" viewBox="0 0 512 512" width="512pt" xmlns="http://www.w3.org/2000/svg"><path d="m205.464844 212.039062c0-22.992187-14.953125-61.460937-45.714844-117.605468-21.941406-40.042969-43.511719-73.519532-44.421875-74.925782l-12.597656-19.507812-12.59375 19.507812c-.910157 1.40625-22.480469 34.882813-44.421875 74.925782-30.761719 56.144531-45.714844 94.613281-45.714844 117.605468 0 56.722657 46.085938 102.867188 102.730469 102.867188 56.648437 0 102.734375-46.144531 102.734375-102.867188zm0 0"/><path d="m466.285156 94.433594c-21.941406-40.042969-43.511718-73.519532-44.421875-74.925782l-12.59375-19.507812-12.597656 19.507812c-.90625 1.40625-22.480469 34.882813-44.421875 74.925782-30.761719 56.144531-45.714844 94.613281-45.714844 117.605468 0 56.722657 46.085938 102.867188 102.734375 102.867188 56.644531 0 102.730469-46.144531 102.730469-102.867188 0-22.992187-14.953125-61.460937-45.714844-117.605468zm0 0"/><path d="m268.597656 216.601562-12.597656-19.507812-12.597656 19.507812c-.90625 1.40625-22.476563 34.882813-44.417969 74.925782-30.761719 56.144531-45.714844 94.613281-45.714844 117.609375 0 56.71875 46.082031 102.863281 102.730469 102.863281s102.730469-46.144531 102.730469-102.863281c0-22.996094-14.953125-61.464844-45.714844-117.609375-21.941406-40.042969-43.511719-73.519532-44.417969-74.925782zm0 0"/></svg>